<?xml version="1.0" encoding="iso-8859-1"?>
<!-- Generator: Adobe Illustrator 19.0.0, SVG Export Plug-In . SVG Version: 6.00 Build 0)  -->
<svg version="1.1" id="Capa_1" xmlns="http://www.w3.org/2000/svg" xmlns:xlink="http://www.w3.org/1999/xlink" x="0px" y="0px"
	 viewBox="0 0 480 480" style="enable-background:new 0 0 480 480;" xml:space="preserve">
<g>
	<g>
		<path d="M373.664,130.696l-80.176-80.352c-1.502-1.502-3.54-2.346-5.664-2.344h-16.16C269.6,20.152,256.68,0,240,0
			s-29.6,20.152-31.664,48h-16.968c-2.138,0.009-4.183,0.873-5.68,2.4l-79.368,80c-1.478,1.49-2.311,3.501-2.32,5.6v336
			c0,4.418,3.582,8,8,8h256c4.418,0,8-3.582,8-8V136.344C376,134.226,375.16,132.195,373.664,130.696z M240,16
			c5.776,0,13.84,12.248,15.616,32h-31.2C226.16,28.248,234.224,16,240,16z M360,464H120V139.344L194.704,64h60.904
			c-0.546,8.962-3.149,17.678-7.608,25.472c-2.562-0.948-5.268-1.445-8-1.472c-13.255,0-24,10.745-24,24s10.745,24,24,24
			s24-10.745,24-24c-0.019-4.389-1.254-8.686-3.568-12.416c6.76-10.691,10.635-22.95,11.248-35.584h12.8L360,139.656V464z M248,112
			c0,4.418-3.582,8-8,8s-8-3.582-8-8c0.051-0.521,0.155-1.036,0.312-1.536c4.921,2.049,10.455,2.049,15.376,0
			C247.845,110.964,247.949,111.479,248,112z"/>
	</g>
</g>
<g>
	<g>
		<rect x="272.169" y="85.653" transform="matrix(0.7077 -0.7065 0.7065 0.7077 15.7241 225.3138)" width="16" height="16"/>
	</g>
</g>
<g>
	<g>
		<rect x="328" y="376.88" width="16" height="31.4"/>
	</g>
</g>
<g>
	<g>
		<rect x="328" y="329.76" width="16" height="31.4"/>
	</g>
</g>
<g>
	<g>
		<path d="M341.664,143.952l-5.792-5.808l-11.328,11.296l3.456,3.448V172.8h16v-23.2C344,147.482,343.16,145.451,341.664,143.952z"
			/>
	</g>
</g>
<g>
	<g>
		<rect x="300.019" y="105.849" transform="matrix(0.7078 -0.7064 0.7064 0.7078 4.1336 253.0909)" width="16" height="31.4"/>
	</g>
</g>
<g>
	<g>
		<rect x="328" y="282.72" width="16" height="31.4"/>
	</g>
</g>
<g>
	<g>
		<rect x="328" y="188.488" width="16" height="31.4"/>
	</g>
</g>
<g>
	<g>
		<rect x="328" y="235.592" width="16" height="31.4"/>
	</g>
</g>
<g>
	<g>
		<path d="M328,424v8h-8v16h16c4.418,0,8-3.582,8-8v-16H328z"/>
	</g>
</g>
<g>
	<g>
		<rect x="176" y="432" width="32" height="16"/>
	</g>
</g>
<g>
	<g>
		<rect x="272" y="432" width="32" height="16"/>
	</g>
</g>
<g>
	<g>
		<rect x="224" y="432" width="32" height="16"/>
	</g>
</g>
<g>
	<g>
		<path d="M152,432v-8h-16v16c0,4.418,3.582,8,8,8h16v-16H152z"/>
	</g>
</g>
<g>
	<g>
		<rect x="136" y="188.784" width="16" height="31.36"/>
	</g>
</g>
<g>
	<g>
		<path d="M143.592,138.272l-5.272,5.32c-1.478,1.49-2.311,3.501-2.32,5.6v23.872h16V152.52l2.952-2.984L143.592,138.272z"/>
	</g>
</g>
<g>
	<g>
		<rect x="136" y="235.824" width="16" height="31.36"/>
	</g>
</g>
<g>
	<g>
		<rect x="136" y="282.88" width="16" height="31.36"/>
	</g>
</g>
<g>
	<g>
		<rect x="136" y="329.92" width="16" height="31.36"/>
	</g>
</g>
<g>
	<g>
		<rect x="155.674" y="113.632" transform="matrix(0.704 -0.7102 0.7102 0.704 -35.6621 157.7014)" width="31.36" height="16"/>
	</g>
</g>
<g>
	<g>
		<rect x="136" y="376.96" width="16" height="31.36"/>
	</g>
</g>
<g>
	<g>
		<rect x="191.069" y="85.647" transform="matrix(0.7042 -0.71 0.71 0.7042 -7.6022 169.0472)" width="16" height="16"/>
	</g>
</g>
<g>
</g>
<g>
</g>
<g>
</g>
<g>
</g>
<g>
</g>
<g>
</g>
<g>
</g>
<g>
</g>
<g>
</g>
<g>
</g>
<g>
</g>
<g>
</g>
<g>
</g>
<g>
</g>
<g>
</g>
</svg>
